{
	"accessors" : 
	[
		{
			"bufferView" : 2,
			"byteOffset" : 0,
			"componentType" : 5126,
			"count" : 162,
			"max" : 
			[
				0.6800203323364258,
				0.6800203323364258,
				0.6800203323364258,
				0.2509804
			],
			"min" : 
			[
				0.6800203323364258,
				0.6800203323364258,
				0.6800203323364258,
				0.2509804
			],
			"name" : "accessor_color_m0-PolyGlass24_-79052",
			"type" : "VEC4"
		},
		{
			"bufferView" : 2,
			"byteOffset" : 2592,
			"componentType" : 5126,
			"count" : 3030,
			"max" : 
			[
				1,
				0.835527777671814,
				0.3488648533821106,
				1
			],
			"min" : 
			[
				0.3488648533821106,
				0.3488648533821106,
				0.03994716703891754,
				1
			],
			"name" : "accessor_color_m1-PolyPaper22_-78160",
			"type" : "VEC4"
		},
		{
			"bufferView" : 0,
			"byteOffset" : 0,
			"componentType" : 5123,
			"count" : 258,
			"max" : 
			[
				161
			],
			"min" : 
			[
				0
			],
			"name" : "accessor_indices_0_m0-PolyGlass24_-79052",
			"type" : "SCALAR"
		},
		{
			"bufferView" : 0,
			"byteOffset" : 516,
			"componentType" : 5123,
			"count" : 4962,
			"max" : 
			[
				3029
			],
			"min" : 
			[
				0
			],
			"name" : "accessor_indices_0_m1-PolyPaper22_-78160",
			"type" : "SCALAR"
		},
		{
			"bufferView" : 1,
			"byteOffset" : 1944,
			"componentType" : 5126,
			"count" : 162,
			"max" : 
			[
				0.9979845000000001,
				0.9951945,
				0.9891315000000001
			],
			"min" : 
			[
				-0.9593092,
				-0.9951951,
				-0.9671068
			],
			"name" : "accessor_normal_m0-PolyGlass24_-79052",
			"type" : "VEC3"
		},
		{
			"bufferView" : 1,
			"byteOffset" : 40248,
			"componentType" : 5126,
			"count" : 3030,
			"max" : 
			[
				0.9875606,
				0.9951954,
				0.9967994999999999
			],
			"min" : 
			[
				-0.9992240999999999,
				-0.9998958,
				-0.9992685
			],
			"name" : "accessor_normal_m1-PolyPaper22_-78160",
			"type" : "VEC3"
		},
		{
			"bufferView" : 1,
			"byteOffset" : 0,
			"componentType" : 5126,
			"count" : 162,
			"max" : 
			[
				0.02953503,
				2.217687,
				-0.8801322
			],
			"min" : 
			[
				-0.06772425,
				2.053351,
				-0.9792380000000001
			],
			"name" : "accessor_position_m0-PolyGlass24_-79052",
			"type" : "VEC3"
		},
		{
			"bufferView" : 1,
			"byteOffset" : 3888,
			"componentType" : 5126,
			"count" : 3030,
			"max" : 
			[
				0.01173867,
				2.184823,
				-0.8923517
			],
			"min" : 
			[
				-0.05308907,
				2.027768,
				-0.9441638999999999
			],
			"name" : "accessor_position_m1-PolyPaper22_-78160",
			"type" : "VEC3"
		}
	],
	"asset" : 
	{
		"copyright" : "Unknown",
		"generator" : "glTF 1-to-2 Upgrader for Google Blocks",
		"version" : "2.0"
	},
	"bufferViews" : 
	[
		{
			"buffer" : 0,
			"byteLength" : 10440,
			"byteOffset" : 0,
			"name" : "ushortBufferView",
			"target" : 34963
		},
		{
			"buffer" : 0,
			"byteLength" : 76608,
			"byteOffset" : 10440,
			"byteStride" : 12,
			"name" : "vec3BufferView",
			"target" : 34962
		},
		{
			"buffer" : 0,
			"byteLength" : 51072,
			"byteOffset" : 87048,
			"byteStride" : 16,
			"name" : "vec4BufferView",
			"target" : 34962
		}
	],
	"buffers" : 
	[
		{
			"byteLength" : 138120,
			"name" : "model",
			"uri" : "model.bin"
		}
	],
	"materials" : 
	[
		{
			"alphaMode" : "OPAQUE",
			"doubleSided" : false,
			"name" : "BlocksPaper",
			"pbrMetallicRoughness" : 
			{
				"baseColorFactor" : 
				[
					1,
					1,
					1,
					1
				],
				"metallicFactor" : 0,
				"roughnessFactor" : 0.6
			}
		},
		{
			"alphaMode" : "BLEND",
			"doubleSided" : false,
			"name" : "BlocksGlass",
			"pbrMetallicRoughness" : 
			{
				"baseColorFactor" : 
				[
					0.2,
					0.2,
					1,
					0.3
				],
				"metallicFactor" : 1,
				"roughnessFactor" : 0.4
			}
		},
		{
			"alphaMode" : "OPAQUE",
			"doubleSided" : true,
			"name" : "BlocksGem",
			"pbrMetallicRoughness" : 
			{
				"baseColorFactor" : 
				[
					1,
					0.4,
					1,
					1
				],
				"metallicFactor" : 0,
				"roughnessFactor" : 0.1
			}
		}
	],
	"meshes" : 
	[
		{
			"name" : "mesh_m0-PolyGlass24_-79052",
			"primitives" : 
			[
				{
					"attributes" : 
					{
						"COLOR_0" : 0,
						"NORMAL" : 4,
						"POSITION" : 6
					},
					"indices" : 2,
					"material" : 1,
					"mode" : 4
				}
			]
		},
		{
			"name" : "mesh_m1-PolyPaper22_-78160",
			"primitives" : 
			[
				{
					"attributes" : 
					{
						"COLOR_0" : 1,
						"NORMAL" : 5,
						"POSITION" : 7
					},
					"indices" : 3,
					"material" : 0,
					"mode" : 4
				}
			]
		}
	],
	"nodes" : 
	[
		{
			"matrix" : 
			[
				1,
				0,
				0,
				0,
				0,
				1,
				0,
				0,
				0,
				0,
				1,
				0,
				0,
				0,
				0,
				1
			],
			"mesh" : 1,
			"name" : "node_MeshObject-530236224-PolyPaper22"
		},
		{
			"matrix" : 
			[
				1,
				0,
				0,
				0,
				0,
				1,
				0,
				0,
				0,
				0,
				1,
				0,
				0,
				0,
				0,
				1
			],
			"mesh" : 0,
			"name" : "node_MeshObject-560314624-PolyGlass24"
		}
	],
	"scene" : 0,
	"scenes" : 
	[
		{
			"extras" : {},
			"name" : "defaultScene",
			"nodes" : 
			[
				1,
				0
			]
		}
	]
}