{
	"accessors" : 
	[
		{
			"bufferView" : 2,
			"byteOffset" : 0,
			"componentType" : 5126,
			"count" : 312,
			"max" : 
			[
				0.6800203323364258,
				0.6800203323364258,
				0.6800203323364258,
				0.2509804
			],
			"min" : 
			[
				0.6800203323364258,
				0.6800203323364258,
				0.6800203323364258,
				0.2509804
			],
			"name" : "accessor_color_m0-PolyGlass24_-15616",
			"type" : "VEC4"
		},
		{
			"bufferView" : 2,
			"byteOffset" : 4992,
			"componentType" : 5126,
			"count" : 2492,
			"max" : 
			[
				1,
				0.835527777671814,
				0.7226724624633789,
				1
			],
			"min" : 
			[
				0.05637409910559654,
				0.09387587010860443,
				0,
				1
			],
			"name" : "accessor_color_m1-PolyPaper16_-15430",
			"type" : "VEC4"
		},
		{
			"bufferView" : 0,
			"byteOffset" : 0,
			"componentType" : 5123,
			"count" : 492,
			"max" : 
			[
				311
			],
			"min" : 
			[
				0
			],
			"name" : "accessor_indices_0_m0-PolyGlass24_-15616",
			"type" : "SCALAR"
		},
		{
			"bufferView" : 0,
			"byteOffset" : 984,
			"componentType" : 5123,
			"count" : 3492,
			"max" : 
			[
				2491
			],
			"min" : 
			[
				0
			],
			"name" : "accessor_indices_0_m1-PolyPaper16_-15430",
			"type" : "SCALAR"
		},
		{
			"bufferView" : 1,
			"byteOffset" : 3744,
			"componentType" : 5126,
			"count" : 312,
			"max" : 
			[
				0.9659259,
				1,
				0.9659259
			],
			"min" : 
			[
				-0.9659259,
				-1,
				-0.965926
			],
			"name" : "accessor_normal_m0-PolyGlass24_-15616",
			"type" : "VEC3"
		},
		{
			"bufferView" : 1,
			"byteOffset" : 37392,
			"componentType" : 5126,
			"count" : 2492,
			"max" : 
			[
				1,
				1,
				1
			],
			"min" : 
			[
				-1,
				-1,
				-1
			],
			"name" : "accessor_normal_m1-PolyPaper16_-15430",
			"type" : "VEC3"
		},
		{
			"bufferView" : 1,
			"byteOffset" : 0,
			"componentType" : 5126,
			"count" : 312,
			"max" : 
			[
				0.01697541,
				1.652002,
				-0.23297
			],
			"min" : 
			[
				-0.1370246,
				1.430011,
				-0.38697
			],
			"name" : "accessor_position_m0-PolyGlass24_-15616",
			"type" : "VEC3"
		},
		{
			"bufferView" : 1,
			"byteOffset" : 7488,
			"componentType" : 5126,
			"count" : 2492,
			"max" : 
			[
				0.08409213,
				1.81453,
				-0.1365043
			],
			"min" : 
			[
				-0.1940871,
				1.310025,
				-0.4760576
			],
			"name" : "accessor_position_m1-PolyPaper16_-15430",
			"type" : "VEC3"
		}
	],
	"asset" : 
	{
		"copyright" : "Unknown",
		"generator" : "glTF 1-to-2 Upgrader for Google Blocks",
		"version" : "2.0"
	},
	"bufferViews" : 
	[
		{
			"buffer" : 0,
			"byteLength" : 7968,
			"byteOffset" : 0,
			"name" : "ushortBufferView",
			"target" : 34963
		},
		{
			"buffer" : 0,
			"byteLength" : 67296,
			"byteOffset" : 7968,
			"byteStride" : 12,
			"name" : "vec3BufferView",
			"target" : 34962
		},
		{
			"buffer" : 0,
			"byteLength" : 44864,
			"byteOffset" : 75264,
			"byteStride" : 16,
			"name" : "vec4BufferView",
			"target" : 34962
		}
	],
	"buffers" : 
	[
		{
			"byteLength" : 120128,
			"name" : "model",
			"uri" : "model.bin"
		}
	],
	"materials" : 
	[
		{
			"alphaMode" : "OPAQUE",
			"doubleSided" : false,
			"name" : "BlocksPaper",
			"pbrMetallicRoughness" : 
			{
				"baseColorFactor" : 
				[
					1,
					1,
					1,
					1
				],
				"metallicFactor" : 0,
				"roughnessFactor" : 0.6
			}
		},
		{
			"alphaMode" : "BLEND",
			"doubleSided" : false,
			"name" : "BlocksGlass",
			"pbrMetallicRoughness" : 
			{
				"baseColorFactor" : 
				[
					0.2,
					0.2,
					1,
					0.3
				],
				"metallicFactor" : 1,
				"roughnessFactor" : 0.4
			}
		},
		{
			"alphaMode" : "OPAQUE",
			"doubleSided" : true,
			"name" : "BlocksGem",
			"pbrMetallicRoughness" : 
			{
				"baseColorFactor" : 
				[
					1,
					0.4,
					1,
					1
				],
				"metallicFactor" : 0,
				"roughnessFactor" : 0.1
			}
		}
	],
	"meshes" : 
	[
		{
			"name" : "mesh_m0-PolyGlass24_-15616",
			"primitives" : 
			[
				{
					"attributes" : 
					{
						"COLOR_0" : 0,
						"NORMAL" : 4,
						"POSITION" : 6
					},
					"indices" : 2,
					"material" : 1,
					"mode" : 4
				}
			]
		},
		{
			"name" : "mesh_m1-PolyPaper16_-15430",
			"primitives" : 
			[
				{
					"attributes" : 
					{
						"COLOR_0" : 1,
						"NORMAL" : 5,
						"POSITION" : 7
					},
					"indices" : 3,
					"material" : 0,
					"mode" : 4
				}
			]
		}
	],
	"nodes" : 
	[
		{
			"matrix" : 
			[
				1,
				0,
				0,
				0,
				0,
				1,
				0,
				0,
				0,
				0,
				1,
				0,
				0,
				0,
				0,
				1
			],
			"mesh" : 1,
			"name" : "node_MeshObject-1708422720-PolyPaper16"
		},
		{
			"matrix" : 
			[
				1,
				0,
				0,
				0,
				0,
				1,
				0,
				0,
				0,
				0,
				1,
				0,
				0,
				0,
				0,
				1
			],
			"mesh" : 0,
			"name" : "node_MeshObject735662464-PolyGlass24"
		}
	],
	"scene" : 0,
	"scenes" : 
	[
		{
			"extras" : {},
			"name" : "defaultScene",
			"nodes" : 
			[
				1,
				0
			]
		}
	]
}