{
	"accessors" : 
	[
		{
			"bufferView" : 2,
			"byteOffset" : 0,
			"componentType" : 5126,
			"count" : 9292,
			"max" : 
			[
				1,
				0.835527777671814,
				0.7893137335777283,
				1
			],
			"min" : 
			[
				0,
				0.006584956776350737,
				0.006584956776350737,
				1
			],
			"name" : "accessor_color_m0-PolyPaper5_-10504",
			"type" : "VEC4"
		},
		{
			"bufferView" : 2,
			"byteOffset" : 148672,
			"componentType" : 5126,
			"count" : 144,
			"max" : 
			[
				1,
				1,
				1,
				1
			],
			"min" : 
			[
				1,
				1,
				1,
				1
			],
			"name" : "accessor_color_m1-PolyGlass24_-10510",
			"type" : "VEC4"
		},
		{
			"bufferView" : 0,
			"byteOffset" : 0,
			"componentType" : 5123,
			"count" : 14712,
			"max" : 
			[
				9291
			],
			"min" : 
			[
				0
			],
			"name" : "accessor_indices_0_m0-PolyPaper5_-10504",
			"type" : "SCALAR"
		},
		{
			"bufferView" : 0,
			"byteOffset" : 29424,
			"componentType" : 5123,
			"count" : 264,
			"max" : 
			[
				143
			],
			"min" : 
			[
				0
			],
			"name" : "accessor_indices_0_m1-PolyGlass24_-10510",
			"type" : "SCALAR"
		},
		{
			"bufferView" : 1,
			"byteOffset" : 111504,
			"componentType" : 5126,
			"count" : 9292,
			"max" : 
			[
				0.9998699,
				0.9999969,
				0.9999742
			],
			"min" : 
			[
				-0.9998738,
				-0.9999969,
				-0.9999958
			],
			"name" : "accessor_normal_m0-PolyPaper5_-10504",
			"type" : "VEC3"
		},
		{
			"bufferView" : 1,
			"byteOffset" : 224736,
			"componentType" : 5126,
			"count" : 144,
			"max" : 
			[
				0.9798173,
				0.9898997,
				0.9698664
			],
			"min" : 
			[
				-0.9798173999999999,
				-0.9899008,
				-0.9698658
			],
			"name" : "accessor_normal_m1-PolyGlass24_-10510",
			"type" : "VEC3"
		},
		{
			"bufferView" : 1,
			"byteOffset" : 0,
			"componentType" : 5126,
			"count" : 9292,
			"max" : 
			[
				0.343841,
				1.561734,
				0.3869713
			],
			"min" : 
			[
				-0.7404832,
				1.368315,
				-1.027623
			],
			"name" : "accessor_position_m0-PolyPaper5_-10504",
			"type" : "VEC3"
		},
		{
			"bufferView" : 1,
			"byteOffset" : 223008,
			"componentType" : 5126,
			"count" : 144,
			"max" : 
			[
				-0.2437472,
				1.491251,
				-0.517123
			],
			"min" : 
			[
				-0.4139381,
				1.426125,
				-0.8624872
			],
			"name" : "accessor_position_m1-PolyGlass24_-10510",
			"type" : "VEC3"
		}
	],
	"asset" : 
	{
		"copyright" : "Unknown",
		"generator" : "glTF 1-to-2 Upgrader for Google Blocks",
		"version" : "2.0"
	},
	"bufferViews" : 
	[
		{
			"buffer" : 0,
			"byteLength" : 29952,
			"byteOffset" : 0,
			"name" : "ushortBufferView",
			"target" : 34963
		},
		{
			"buffer" : 0,
			"byteLength" : 226464,
			"byteOffset" : 29952,
			"byteStride" : 12,
			"name" : "vec3BufferView",
			"target" : 34962
		},
		{
			"buffer" : 0,
			"byteLength" : 150976,
			"byteOffset" : 256416,
			"byteStride" : 16,
			"name" : "vec4BufferView",
			"target" : 34962
		}
	],
	"buffers" : 
	[
		{
			"byteLength" : 407392,
			"name" : "model",
			"uri" : "model.bin"
		}
	],
	"materials" : 
	[
		{
			"alphaMode" : "OPAQUE",
			"doubleSided" : false,
			"name" : "BlocksPaper",
			"pbrMetallicRoughness" : 
			{
				"baseColorFactor" : 
				[
					1,
					1,
					1,
					1
				],
				"metallicFactor" : 0,
				"roughnessFactor" : 0.6
			}
		},
		{
			"alphaMode" : "BLEND",
			"doubleSided" : false,
			"name" : "BlocksGlass",
			"pbrMetallicRoughness" : 
			{
				"baseColorFactor" : 
				[
					0.2,
					0.2,
					1,
					0.3
				],
				"metallicFactor" : 1,
				"roughnessFactor" : 0.4
			}
		},
		{
			"alphaMode" : "OPAQUE",
			"doubleSided" : true,
			"name" : "BlocksGem",
			"pbrMetallicRoughness" : 
			{
				"baseColorFactor" : 
				[
					1,
					0.4,
					1,
					1
				],
				"metallicFactor" : 0,
				"roughnessFactor" : 0.1
			}
		}
	],
	"meshes" : 
	[
		{
			"name" : "mesh_m0-PolyPaper5_-10504",
			"primitives" : 
			[
				{
					"attributes" : 
					{
						"COLOR_0" : 0,
						"NORMAL" : 4,
						"POSITION" : 6
					},
					"indices" : 2,
					"material" : 0,
					"mode" : 4
				}
			]
		},
		{
			"name" : "mesh_m1-PolyGlass24_-10510",
			"primitives" : 
			[
				{
					"attributes" : 
					{
						"COLOR_0" : 1,
						"NORMAL" : 5,
						"POSITION" : 7
					},
					"indices" : 3,
					"material" : 1,
					"mode" : 4
				}
			]
		}
	],
	"nodes" : 
	[
		{
			"matrix" : 
			[
				1,
				0,
				0,
				0,
				0,
				1,
				0,
				0,
				0,
				0,
				1,
				0,
				0,
				0,
				0,
				1
			],
			"mesh" : 1,
			"name" : "node_MeshObject-1627710464-PolyGlass24"
		},
		{
			"matrix" : 
			[
				1,
				0,
				0,
				0,
				0,
				1,
				0,
				0,
				0,
				0,
				1,
				0,
				0,
				0,
				0,
				1
			],
			"mesh" : 0,
			"name" : "node_MeshObject2095177728-PolyPaper5"
		}
	],
	"scene" : 0,
	"scenes" : 
	[
		{
			"extras" : {},
			"name" : "defaultScene",
			"nodes" : 
			[
				1,
				0
			]
		}
	]
}